<svg xmlns="http://www.w3.org/2000/svg" width="47.75" height="46.5" viewBox="0 0 47.75 46.5">
  <metadata><?xpacket begin="﻿" id="W5M0MpCehiHzreSzNTczkc9d"?>
<x:xmpmeta xmlns:x="adobe:ns:meta/" x:xmptk="Adobe XMP Core 5.6-c138 79.159824, 2016/09/14-01:09:01        ">
   <rdf:RDF xmlns:rdf="http://www.w3.org/1999/02/22-rdf-syntax-ns#">
      <rdf:Description rdf:about=""/>
   </rdf:RDF>
</x:xmpmeta>
                                                                                                    
                                                                                                    
                                                                                                    
                                                                                                    
                                                                                                    
                                                                                                    
                                                                                                    
                                                                                                    
                                                                                                    
                                                                                                    
                                                                                                    
                                                                                                    
                                                                                                    
                                                                                                    
                                                                                                    
                                                                                                    
                                                                                                    
                                                                                                    
                                                                                                    
                                                                                                    
                           
<?xpacket end="w"?></metadata>
<defs>
    <style>
      .cls-1 {
        fill: #fff;
        fill-rule: evenodd;
      }
    </style>
  </defs>
  <path id="Basket" class="cls-1" d="M400.7,1145.51H380.446a1.483,1.483,0,0,1-1.434-1.09l-8.29-30.46c-0.423-1.46-1.042-1.46-1.246-1.46h-6.425a1.49,1.49,0,0,1,0-2.98h6.425c0.921,0,3.167.35,4.112,3.62l2.41,8.31h31.833a1.486,1.486,0,0,1,1.4,1.99l-7.136,21.08A1.483,1.483,0,0,1,400.7,1145.51Zm-19.119-2.98h18.07l6.067-18.1H376.834Zm15.115,6a3.75,3.75,0,1,1-3.75,3.75A3.75,3.75,0,0,1,396.691,1148.53Zm-13.5,0a3.75,3.75,0,1,1-3.75,3.75A3.751,3.751,0,0,1,383.191,1148.53Z" transform="translate(-361.562 -1109.53)"/>
</svg>
