<svg xmlns="http://www.w3.org/2000/svg" width="48.156" height="47.97" viewBox="0 0 48.156 47.97">
  <metadata><?xpacket begin="﻿" id="W5M0MpCehiHzreSzNTczkc9d"?>
<x:xmpmeta xmlns:x="adobe:ns:meta/" x:xmptk="Adobe XMP Core 5.6-c138 79.159824, 2016/09/14-01:09:01        ">
   <rdf:RDF xmlns:rdf="http://www.w3.org/1999/02/22-rdf-syntax-ns#">
      <rdf:Description rdf:about=""/>
   </rdf:RDF>
</x:xmpmeta>
                                                                                                    
                                                                                                    
                                                                                                    
                                                                                                    
                                                                                                    
                                                                                                    
                                                                                                    
                                                                                                    
                                                                                                    
                                                                                                    
                                                                                                    
                                                                                                    
                                                                                                    
                                                                                                    
                                                                                                    
                                                                                                    
                                                                                                    
                                                                                                    
                                                                                                    
                                                                                                    
                           
<?xpacket end="w"?></metadata>
<defs>
    <style>
      .cls-1 {
        fill: #fff;
        fill-rule: evenodd;
      }
    </style>
  </defs>
  <path id="Home" class="cls-1" d="M323.976,1154.98H313.5a1.5,1.5,0,0,1-1.5-1.5V1138.5H300.049L300,1153.49a1.5,1.5,0,0,1-1.5,1.49h-10.48a1.5,1.5,0,0,1-1.5-1.5v-25.16a1.5,1.5,0,0,1,3,0v23.66h7.485l0.047-14.98a1.5,1.5,0,0,1,1.5-1.5H313.5a1.5,1.5,0,0,1,1.5,1.5v14.98h7.474v-23.66a1.5,1.5,0,0,1,3,0v25.16A1.5,1.5,0,0,1,323.976,1154.98Zm4.6-21.38a1.485,1.485,0,0,1-1.083-.46l-21.433-22.46-21.552,22.46a1.5,1.5,0,0,1-2.165-2.08l22.634-23.58a1.479,1.479,0,0,1,1.083-.46h0a1.479,1.479,0,0,1,1.082.46l22.517,23.58A1.5,1.5,0,0,1,328.574,1133.6Z" transform="translate(-281.938 -1107)"/>
</svg>
