<svg xmlns="http://www.w3.org/2000/svg" width="46" height="46" viewBox="0 0 46 46">
  <metadata><?xpacket begin="﻿" id="W5M0MpCehiHzreSzNTczkc9d"?>
<x:xmpmeta xmlns:x="adobe:ns:meta/" x:xmptk="Adobe XMP Core 5.6-c138 79.159824, 2016/09/14-01:09:01        ">
   <rdf:RDF xmlns:rdf="http://www.w3.org/1999/02/22-rdf-syntax-ns#">
      <rdf:Description rdf:about=""/>
   </rdf:RDF>
</x:xmpmeta>
                                                                                                    
                                                                                                    
                                                                                                    
                                                                                                    
                                                                                                    
                                                                                                    
                                                                                                    
                                                                                                    
                                                                                                    
                                                                                                    
                                                                                                    
                                                                                                    
                                                                                                    
                                                                                                    
                                                                                                    
                                                                                                    
                                                                                                    
                                                                                                    
                                                                                                    
                                                                                                    
                           
<?xpacket end="w"?></metadata>
<defs>
    <style>
      .cls-1 {
        fill: #fff;
        fill-rule: evenodd;
      }
    </style>
  </defs>
  <path id="Info" class="cls-1" d="M226,1128.78a1.433,1.433,0,0,1,1.437,1.43v14.29a1.437,1.437,0,1,1-2.874,0v-14.29A1.433,1.433,0,0,1,226,1128.78Zm-2.875-.09H226a1.435,1.435,0,1,1,0,2.87h-2.875A1.435,1.435,0,1,1,223.125,1128.69Zm0,14.37h5.75a1.44,1.44,0,0,1,0,2.88h-5.75A1.44,1.44,0,0,1,223.125,1143.06Zm2.875-23a2.875,2.875,0,1,1-2.875,2.88A2.878,2.878,0,0,1,226,1120.06Zm0-7.19A20.15,20.15,0,1,1,205.875,1133,20.15,20.15,0,0,1,226,1112.87m0-2.87a23,23,0,1,0,23,23,23,23,0,0,0-23-23h0Z" transform="translate(-203 -1110)"/>
</svg>
